<svg width="36" height="36" viewBox="0 0 36 36" fill="none" xmlns="http://www.w3.org/2000/svg">
<path d="M25.0468 2.99973C26.999 3.00567 28.8695 3.79781 30.2498 5.20314C31.6302 6.60848 32.4083 8.51283 32.4141 10.5003V25.4997C32.4083 27.4872 31.6302 29.3915 30.2498 30.7969C28.8695 32.2022 26.999 32.9943 25.0468 33.0003H10.3138C8.36162 32.9943 6.49111 32.2022 5.11073 30.7969C3.73035 29.3915 2.95228 27.4872 2.94645 25.4997V10.5003C2.95228 8.51283 3.73035 6.60848 5.11073 5.20314C6.49111 3.79781 8.36162 3.00567 10.3138 2.99973H25.0468ZM25.0468 0H10.3138C4.64108 0 0 4.725 0 10.5003V25.4997C0 31.275 4.64108 36 10.3138 36H25.0468C30.7195 36 35.3606 31.275 35.3606 25.4997V10.5003C35.3606 4.725 30.7195 0 25.0468 0Z" fill="white" fill-opacity="0.933333"/>
<path d="M27.3134 11.0033C26.8603 11.0033 26.4174 10.8771 26.0407 10.6405C25.6639 10.404 25.3703 10.0677 25.1969 9.67434C25.0235 9.28096 24.9782 8.8481 25.0666 8.43048C25.1549 8.01287 25.3731 7.62927 25.6935 7.32819C26.0139 7.02711 26.4221 6.82207 26.8664 6.739C27.3108 6.65593 27.7714 6.69856 28.19 6.86151C28.6086 7.02445 28.9664 7.30039 29.2181 7.65442C29.4698 8.00846 29.6042 8.42469 29.6042 8.85048C29.6048 9.13337 29.546 9.41359 29.4311 9.67506C29.3162 9.93653 29.1475 10.1741 28.9347 10.3741C28.7218 10.5742 28.469 10.7327 28.1908 10.8407C27.9126 10.9487 27.6144 11.0039 27.3134 11.0033ZM17.3867 12.4381C18.595 12.4381 19.7761 12.7748 20.7808 13.4056C21.7854 14.0365 22.5684 14.9331 23.0308 15.9822C23.4932 17.0313 23.6142 18.1856 23.3785 19.2993C23.1428 20.413 22.5609 21.436 21.7065 22.2389C20.8522 23.0418 19.7636 23.5886 18.5785 23.8101C17.3935 24.0316 16.1651 23.918 15.0488 23.4834C13.9325 23.0489 12.9784 22.313 12.3071 21.3689C11.6359 20.4247 11.2776 19.3147 11.2776 18.1792C11.2793 16.6571 11.9235 15.1977 13.0688 14.1214C14.2141 13.0451 15.767 12.4397 17.3867 12.4381ZM17.3867 9.56784C15.5744 9.56784 13.8027 10.0729 12.2958 11.0191C10.7889 11.9654 9.61446 13.3103 8.92091 14.8838C8.22736 16.4573 8.04589 18.1888 8.39946 19.8592C8.75303 21.5297 9.62575 23.0641 10.9073 24.2684C12.1888 25.4728 13.8215 26.2929 15.599 26.6252C17.3765 26.9575 19.219 26.7869 20.8934 26.1351C22.5677 25.4834 23.9989 24.3796 25.0057 22.9635C26.0126 21.5473 26.55 19.8824 26.55 18.1792C26.55 15.8954 25.5846 13.705 23.8662 12.0901C22.1477 10.4751 19.817 9.56784 17.3867 9.56784Z" fill="white" fill-opacity="0.933333"/>
</svg>
