<svg width="36" height="23" viewBox="0 0 36 23" fill="none" xmlns="http://www.w3.org/2000/svg">
<path d="M22.3086 1.03474C23.2955 1.17821 24.2619 1.43308 25.2169 1.73478C26.884 2.26258 28.4571 2.99583 29.9365 3.94705C30.0395 4.0127 30.1769 4.05438 30.2981 4.05438C32.0359 4.06176 33.7729 4.05918 35.5093 4.06065C35.6492 4.06065 35.7884 4.07578 35.9279 4.08389C35.9279 4.11893 35.9329 4.13368 35.9272 4.1418C35.8461 4.27015 35.764 4.39666 35.6825 4.52465C35.0931 5.45411 34.5894 6.42636 34.292 7.50114C34.2598 7.61659 34.2529 7.71322 34.329 7.82645C35.8759 10.1103 36.3695 12.6176 35.7231 15.3204C35.1563 17.6909 33.8346 19.5392 31.8264 20.8478C30.3911 21.7835 28.8054 22.2291 27.1114 22.2387C26.3997 22.2431 25.6915 22.1446 24.9963 21.9595C23.3023 21.5076 21.8501 20.6394 20.6533 19.3245C20.4955 19.1519 20.3469 18.9715 20.1787 18.7764C19.5459 19.7461 18.9231 20.6999 18.2852 21.6788C17.6499 20.7028 17.0357 19.7582 16.423 18.8174C16.3807 18.8402 16.3685 18.8428 16.3602 18.8509C16.3462 18.8627 16.3344 18.8771 16.3233 18.8907C14.8757 20.6482 13.0548 21.7256 10.8363 22.086C9.60221 22.287 8.37997 22.2147 7.18141 21.875C5.48276 21.3951 4.03917 20.4738 2.8729 19.1143C1.73317 17.785 1.02429 16.2418 0.758101 14.4872C0.453527 12.8496 0.824468 11.2706 0.917024 10.8874C1.18536 9.77353 1.65317 8.75075 2.29532 7.81023C2.34052 7.74347 2.3563 7.62544 2.33478 7.54577C2.0729 6.5584 1.6216 5.66029 1.09317 4.80017C0.958997 4.58145 0.79828 4.37896 0.64976 4.16909C0.64976 4.14512 0.64976 4.1204 0.64976 4.09606C0.679536 4.09975 0.708953 4.10565 0.738011 4.10565C2.51595 4.10639 4.29352 4.10713 6.07146 4.10344C6.14894 4.10344 6.23504 4.07061 6.30105 4.02709C7.5502 3.20311 8.88114 2.55028 10.2795 2.04202C11.288 1.67614 12.3175 1.39066 13.3676 1.18153C14.3843 0.979409 15.4063 0.83704 16.4392 0.766961C18.9572 0.567791 20.9697 0.841835 22.3086 1.03474ZM20.0797 13.1071C20.0797 17.1211 23.2474 20.4004 27.1376 20.3849C31.0425 20.3705 34.1959 17.1834 34.193 13.1251C34.1902 8.94292 30.8904 5.79897 26.9862 5.88048C23.1319 5.96273 20.1148 9.15684 20.0797 13.1071ZM9.4928 5.85282C5.69513 5.81889 2.38393 9.07754 2.4503 13.2284C2.512 17.0993 5.61513 20.3808 9.57172 20.3458C13.4404 20.3119 16.55 17.0639 16.5572 13.1307C16.5633 9.08971 13.4157 5.85282 9.4928 5.85282ZM9.84293 3.95922C11.9882 4.09385 13.8727 4.8625 15.4648 6.35112C17.0537 7.83678 17.9846 9.69018 18.3229 11.8696C18.6709 9.71599 19.5774 7.87993 21.1365 6.40902C22.6982 4.93664 24.5575 4.16393 26.6677 4.00053C24.1636 2.85604 21.5233 2.36992 18.8054 2.31607C15.7166 2.25373 12.7122 2.72178 9.84293 3.95922Z" fill="white" fill-opacity="0.933333"/>
<path d="M27.1233 8.52763C29.5394 8.52358 31.4964 10.5249 31.4964 13.0064C31.4964 15.4975 29.5728 17.4232 27.3034 17.5121C24.7688 17.612 22.7409 15.5359 22.7416 13.0175C22.7437 10.4703 24.7861 8.48559 27.1233 8.52763ZM29.9731 13.0175C29.9721 11.3983 28.6989 10.0823 27.1348 10.0823C25.5527 10.0823 24.2648 11.3913 24.2583 13.0057C24.2526 14.613 25.547 15.9504 27.1143 15.9549C28.6842 15.9611 29.9739 14.6337 29.9731 13.0175Z" fill="white" fill-opacity="0.933333"/>
<path d="M9.39952 8.52766C11.8142 8.52508 13.774 10.5301 13.7679 13.0112C13.7611 15.5226 11.8358 17.4062 9.60616 17.5106C7.06159 17.6301 5.0085 15.5447 5.01316 13.0127C5.01818 10.4474 7.0745 8.48488 9.39952 8.52766ZM12.2462 13.0075C12.2415 11.3784 10.9601 10.0797 9.36042 10.0827C7.81746 10.0856 6.52455 11.4245 6.52814 13.0167C6.53208 14.6274 7.82356 15.9519 9.39522 15.9564C10.9572 15.96 12.2501 14.6227 12.2462 13.0075Z" fill="white" fill-opacity="0.933333"/>
<path d="M27.1254 11.527C27.9261 11.5262 28.5826 12.2016 28.5751 13.02C28.5672 13.8403 27.9218 14.5049 27.1344 14.5053C26.3236 14.5053 25.6718 13.8466 25.6736 13.0303C25.675 12.1835 26.3082 11.5277 27.1254 11.527Z" fill="white" fill-opacity="0.933333"/>
<path d="M9.39199 11.5137C10.2049 11.5129 10.8582 12.1805 10.8614 13.0137C10.8646 13.8399 10.2053 14.5182 9.39629 14.52C8.56795 14.5219 7.92903 13.8639 7.92975 13.0078C7.92975 12.1672 8.56724 11.5148 9.39199 11.5137Z" fill="white" fill-opacity="0.933333"/>
</svg>
