<svg width="131" height="120" viewBox="0 0 131 120" fill="none" xmlns="http://www.w3.org/2000/svg">
<path d="M58.4971 7.34693C63.2054 9.30448 69.8923 8.16325 74.9751 8.16325C70.2667 6.20574 63.5799 7.34693 58.4971 7.34693Z" fill="#DBE5DC"/>
<path d="M54.3774 8.16327C55.6182 8.72082 56.2846 8.83747 57.673 8.9796C56.4322 8.42204 55.7659 8.30539 54.3774 8.16327Z" fill="#D5DDD6"/>
<path d="M57.6729 8.16327C62.3739 11.3454 69.5166 9.38221 74.9747 10.029C89.3872 11.7368 100.246 15.4123 108.755 27.7551C109.641 22.379 103.037 17.1625 98.8357 14.7059C86.6964 7.6074 71.2812 8.16327 57.6729 8.16327Z" fill="#BDCEBE"/>
<path d="M76.6226 8.16327C78.08 8.79911 79.1238 8.90809 80.7421 8.9796C79.2846 8.34376 78.2408 8.23478 76.6226 8.16327Z" fill="#E5ECE7"/>
<path d="M51.9058 8.97958C52.9343 9.5386 53.1815 9.59085 54.3775 9.79591C53.349 9.23689 53.1017 9.18464 51.9058 8.97958Z" fill="#E3E9E3"/>
<path d="M41.1948 13.8775C46.6804 15.0229 53.7827 10.7255 59.3206 9.79591C54.1352 7.70041 45.922 11.5237 41.1948 13.8775Z" fill="#B2C3B1"/>
<path d="M80.7422 8.97958C82.4328 9.69322 83.8293 9.75738 85.6856 9.79591C83.9949 9.08228 82.5984 9.01811 80.7422 8.97958Z" fill="#DDE4DC"/>
<path d="M48.6099 104.49L47.786 106.939C48.8296 108.198 49.0129 108.611 49.4338 110.204C49.9965 108.975 50.1142 108.314 50.2577 106.939L51.9055 111.837C53.2527 111.392 53.1042 111.539 53.5533 110.204C55.0573 111.295 55.8213 111.584 57.6728 111.837C57.0401 110.764 57.1077 110.831 56.025 110.204C58.212 107.602 60.0619 107.047 63.4401 106.939L62.6162 110.204C66.672 108.242 70.4624 105.078 74.9747 108.571H76.6224V106.939H78.2702C78.8151 108.078 79.0648 108.42 79.918 109.388C76.855 110.349 74.075 110.953 70.8552 111.02L74.1508 114.286C74.715 113.267 74.7677 113.022 74.9747 111.837C76.8042 112.441 78.0107 112.71 79.918 112.653C79.3827 111.592 79.7971 111.837 78.2702 111.837C79.7077 111.11 80.8449 110.651 82.3897 110.204L81.5658 104.49C83.9584 104.154 85.8452 103.724 88.157 104.49C90.6823 100.298 97.4589 96.0816 102.163 94.6939L101.339 92.2449C105.648 89.7233 108.698 85.7028 109.578 80.8163C112.128 81.2164 113.032 81.5888 113.698 84.0816L116.994 83.2653C116.217 80.806 112.141 77.6053 114.522 75.9184C113.551 71.6959 115.697 68.6077 115.346 64.4898C117.548 65.1846 119.651 65.7875 121.937 66.1224C120.929 65.1468 120.767 65.0478 119.465 64.4898C121.458 61.7455 121.897 59.6781 121.937 56.3265C125.279 58.5182 128.219 60.5725 129.352 64.4898C132.454 58.9537 123.458 54.1333 119.465 51.4286C119.467 54.0815 119.487 65.995 115.346 58.7755C116.693 59.2205 116.544 59.0733 116.994 60.4082C118.11 58.439 117.528 57.6062 115.346 57.1428C115.795 55.8081 115.646 55.9552 116.994 55.5102V53.8775C115.896 52.1237 116.091 51.7503 117.817 50.6122C116.36 49.9764 115.316 49.8674 113.698 49.7959V47.3469L118.641 46.5306C118.201 44.3509 119.288 44.5363 116.994 44.0816C117.831 41.3242 117.724 39.5094 116.994 36.7347C115.821 38.7613 115.812 40.1445 116.17 42.449C113.105 39.2224 112.507 34.1592 110.445 30.2041C105.686 21.0754 98.3198 14.6418 88.1537 12.0377C63.1216 5.62527 35.5277 11.4419 20.432 33.4694C15.9714 39.9783 16.4778 48.8117 16.4778 56.3265C16.4778 64.0168 16.0237 71.7673 18.5115 79.1837C23.0801 92.8033 35.4522 100.709 48.6099 104.49Z" fill="#FEFEFE"/>
<path d="M85.6855 9.79593C86.9263 10.3535 87.5929 10.4701 88.9811 10.6123C87.7404 10.0547 87.0738 9.93805 85.6855 9.79593Z" fill="#E7EDE7"/>
<path d="M44.4907 11.4286C45.5192 11.9876 45.7665 12.0398 46.9624 12.2449C45.9339 11.6859 45.6867 11.6336 44.4907 11.4286Z" fill="#E2E9E2"/>
<path d="M50.807 11.7007C50.4408 12.0635 51.3105 12.0181 51.3563 11.9728C51.7225 11.61 50.8528 11.6553 50.807 11.7007Z" fill="#DAE3DA"/>
<path d="M40.0966 14.1496C39.7304 14.5125 40.6001 14.4671 40.6458 14.4218C41.012 14.0589 40.1423 14.1043 40.0966 14.1496Z" fill="#D0DBCF"/>
<path d="M43.392 14.1496C43.0258 14.5125 43.8955 14.4671 43.9412 14.4218C44.3074 14.0589 43.4377 14.1043 43.392 14.1496Z" fill="#D9E2DA"/>
<path d="M63.4404 13.8776C66.702 15.2336 70.6385 14.6939 74.1511 14.6939C70.8896 13.3379 66.953 13.8776 63.4404 13.8776Z" fill="#E1E6E1"/>
<path d="M93.65 14.1496C93.2833 14.5125 94.1534 14.4671 94.1987 14.4218C94.5653 14.059 93.6953 14.1043 93.65 14.1496Z" fill="#DEE6DE"/>
<path d="M18.1258 81.6327C19.4393 77.347 16.4297 72.1113 15.7648 67.7551C14.5013 59.4778 14.394 49.7324 16.8404 41.6327C18.9654 34.5969 24.828 27.3206 30.4964 22.7003C33.9505 19.8849 38.226 17.9776 41.195 14.6939C35.1008 15.3501 29.163 20.4616 25.0012 24.7304C15.1005 34.886 14.0063 45.2331 14.0063 58.7755C14.0063 66.5549 14.5411 74.5571 18.1258 81.6327Z" fill="#B5C6B4"/>
<path d="M57.6729 14.6939C58.9136 15.2514 59.58 15.3681 60.9684 15.5102C59.7277 14.9527 59.0613 14.836 57.6729 14.6939Z" fill="#D3DCD1"/>
<path d="M46.9621 99.5918C47.5126 92.6808 47.6441 86.1151 46.8559 79.1837C46.4068 75.2334 45.18 71.8321 45.3296 67.7583C45.6782 58.2648 49.2692 47.941 52.7294 39.1837H54.3772C57.4482 51.9639 53.5547 65.4884 53.5533 78.3673C57.8794 72.3724 56.3178 65.6451 56.9888 58.7755C58.002 48.4022 62.0882 34.2087 70.8552 27.7551C72.4107 37.4448 65.9169 46.3235 64.264 55.5102C74.7266 45.3233 78.4012 28.2182 93.1005 22.0408C91.8811 33.8357 79.8437 44.4905 71.6791 52.2121C66.6202 56.9966 62.1104 60.4998 60.9684 67.7551C69.342 60.3825 79.1448 51.0078 90.6288 48.9796C85.7596 66.1677 58.9794 65.481 54.3772 82.449C64.404 76.7936 71.3955 68.081 83.2137 65.3061C81.2546 75.1313 68.1703 81.3932 60.1445 85.9428C56.3431 88.0979 51.0487 90.0996 49.7917 94.6971C47.5088 103.047 58.7181 102.848 64.264 102.857C79.2168 102.881 91.5129 99.3951 101.868 87.9526C109.951 79.0214 111.226 68.6728 111.226 57.1428C111.226 44.0006 108.604 29.5641 97.0799 21.3133C93.5528 18.788 88.981 17.9433 84.8615 16.7996C70.6435 12.852 53.5318 14.2309 40.4034 21.2094C19.7335 32.1964 14.7467 57.9381 22.9871 78.3673C26.9551 88.2049 35.4004 98.9975 46.9621 99.5918Z" fill="#988F72"/>
<path d="M74.9746 14.6939C76.4321 15.3297 77.4759 15.4387 79.0941 15.5102C77.6366 14.8744 76.5928 14.7654 74.9746 14.6939Z" fill="#CCD9CE"/>
<path d="M95.2979 14.966C94.9313 15.3288 95.8013 15.2834 95.8466 15.2381C96.2133 14.8753 95.3432 14.9207 95.2979 14.966Z" fill="#E5EAE3"/>
<path d="M54.3774 15.5102C55.6182 16.0677 56.2846 16.1844 57.673 16.3265C56.4322 15.769 55.7659 15.6523 54.3774 15.5102Z" fill="#CFDACE"/>
<path d="M81.5659 15.5102C83.4699 16.6474 85.1161 16.9512 87.3332 17.1428C85.4267 15.844 83.8811 15.6265 81.5659 15.5102Z" fill="#E7EEE7"/>
<path d="M49.1596 17.4149C48.7934 17.7778 49.6631 17.7324 49.7088 17.6871C50.075 17.3243 49.2053 17.3696 49.1596 17.4149Z" fill="#E2E9E1"/>
<path d="M87.3335 17.1429C88.7284 18.0101 89.8382 18.3833 91.453 18.7755C90.1842 17.3036 89.3133 17.28 87.3335 17.1429Z" fill="#E7EBE7"/>
<path d="M71.6794 47.3469C76.8354 39.2037 82.587 30.919 90.6291 25.3061C87.3211 35.2947 77.8142 40.7504 73.3272 49.7959C76.546 48.2773 78.4175 45.8413 80.8128 43.2653C86.3102 37.3536 92.66 30.4608 93.1008 22.0408C85.539 24.0005 80.5028 31.6559 76.1046 37.551C73.7413 40.7189 71.4967 43.289 71.6794 47.3469Z" fill="#EDF0ED"/>
<path d="M86.5093 30.2041L88.981 31.0204C89.7423 29.1025 90.2654 27.3344 90.6288 25.3061C88.2815 26.546 87.4996 27.7576 86.5093 30.2041Z" fill="#D8E0D8"/>
<path d="M65.088 35.102L70.0314 30.2041C69.0194 41.6163 60.4892 52.3686 60.1446 63.6735H57.6729C57.6589 68.6641 56.0373 72.7362 55.2012 77.551C57.3446 75.8166 59.2779 74.0045 60.9685 71.8367L58.4968 71.0204C60.1436 66.7416 62.5905 61.7251 65.6099 58.2243C67.6652 55.8414 70.9155 54.7324 69.2075 51.4286C71.2712 49.5873 71.7938 48.4693 71.6792 45.7143C68.0159 48.8727 65.602 53.3582 64.2641 57.9592C64.0336 54.0262 66.1755 51.0303 67.3238 47.3469C69.3431 40.87 70.8507 34.5486 70.8553 27.7551C67.5295 29.376 66.1321 31.6218 65.088 35.102Z" fill="#F6F6F6"/>
<path d="M86.5095 27.7551C83.2279 31.0086 79.7922 33.9324 78.2705 38.3673C81.4068 36.1006 86.6463 31.8415 86.5095 27.7551Z" fill="#AFC2AF"/>
<path d="M109.579 27.7551C110.524 31.8902 112.838 39.792 116.17 42.449C115.001 37.3831 114.367 30.6651 109.579 27.7551Z" fill="#BFCEBF"/>
<path d="M70.8555 28.5714V31.8367C71.4406 30.4004 71.4406 30.0078 70.8555 28.5714Z" fill="#E0E8E1"/>
<path d="M69.2074 30.2041C66.3171 33.5977 64.652 36.2988 65.0879 40.8163C67.2403 38.0155 70.5834 33.7379 69.2074 30.2041Z" fill="#DDE4DC"/>
<path d="M83.2139 35.102C85.0413 33.6109 86.1346 32.2331 87.3334 30.2041C84.9292 31.4424 84.102 32.5654 83.2139 35.102Z" fill="#E9F0E9"/>
<path d="M87.3333 30.2041C82.1646 36.4927 75.1487 42.3804 71.6792 49.7959C76.6859 47.3491 80.5205 41.7833 83.9586 37.551C85.7695 35.3223 87.7592 33.117 87.3333 30.2041Z" fill="#AFC3AF"/>
<path d="M89.2554 32.381C89.2101 32.4263 89.1639 33.288 89.5306 32.9252C89.5759 32.8799 89.622 32.0181 89.2554 32.381Z" fill="#CBD8CC"/>
<path d="M82.3897 33.4694C78.9544 38.2198 73.4102 41.2035 72.5029 47.3469C75.9644 44.8154 83.2993 37.9607 82.3897 33.4694Z" fill="#CBD8CB"/>
<path d="M68.3838 34.2857C67.2399 36.4388 66.478 38.4485 65.9121 40.8163C68.1333 39.1957 69.1308 36.9532 68.3838 34.2857Z" fill="#C5D2C5"/>
<path d="M64.264 35.1021C59.0897 44.0776 57.6729 53.4862 57.6729 63.6735H60.1445V60.4082C59.5803 61.4272 59.5276 61.6722 59.3207 62.8572C57.5587 56.8955 60.2666 49.8511 62.1058 44.0816C63.0697 41.0576 65.152 38.2758 64.264 35.1021Z" fill="#EEF2EE"/>
<path d="M70.3059 35.6463C70.2602 35.6916 70.2143 36.5533 70.5806 36.1904C70.6263 36.1451 70.6721 35.2834 70.3059 35.6463Z" fill="#D2DCD2"/>
<path d="M15.9289 36.4626C15.8832 36.5079 15.8374 37.3696 16.2036 37.0068C16.2493 36.9615 16.2952 36.0997 15.9289 36.4626Z" fill="#DDE5DD"/>
<path d="M23.344 37.2789C23.2982 37.3242 23.2524 38.186 23.6187 37.8231C23.6644 37.7778 23.7102 36.9161 23.344 37.2789Z" fill="#D0DBD1"/>
<path d="M114.796 37.2789C114.751 37.3242 114.705 38.186 115.072 37.8231C115.117 37.7778 115.163 36.9161 114.796 37.2789Z" fill="#D7E0D8"/>
<path d="M14.8301 37.551V40.8163C15.4152 39.38 15.4152 38.9874 14.8301 37.551Z" fill="#DAE3DA"/>
<path d="M17.5764 38.9116C17.5307 38.9569 17.4849 39.8186 17.8511 39.4558C17.8968 39.4105 17.9426 38.5487 17.5764 38.9116Z" fill="#E1E8E2"/>
<path d="M22.2453 38.3673L21.4214 42.449C22.5075 40.8766 22.782 40.1911 22.2453 38.3673Z" fill="#D0DAD1"/>
<path d="M64.2643 38.3673L63.4404 41.6326C64.514 40.2713 64.7199 40.0064 64.2643 38.3673Z" fill="#C2D0C2"/>
<path d="M53.2787 39.4557C52.9125 39.8186 53.7822 39.7732 53.8279 39.7279C54.1942 39.3651 53.3245 39.4104 53.2787 39.4557Z" fill="#DCE5DD"/>
<path d="M113.973 39.7279C113.927 39.7733 113.881 40.6349 114.248 40.2721C114.293 40.2268 114.339 39.3651 113.973 39.7279Z" fill="#CDD9CE"/>
<path d="M51.9058 40C50.8858 42.7564 49.8445 45.2288 49.4341 48.1633C51.258 46.8455 51.8776 45.3456 52.7297 43.2653C53.36 46.9563 52.7301 50.9161 52.7297 54.6939C54.2284 53.5802 53.5791 53.4758 55.2014 53.8776V40H51.9058Z" fill="#EBEFEB"/>
<path d="M14.0063 40.8163V45.7143C14.79 43.8487 14.79 42.6819 14.0063 40.8163Z" fill="#E3EAE4"/>
<path d="M16.4782 40.8163L15.6543 48.1633C16.9478 45.7522 17.4925 43.3918 16.4782 40.8163Z" fill="#D0DBD0"/>
<path d="M64.2643 40.8163C63.8015 42.2862 63.5854 43.3647 63.4404 44.8979C64.3736 43.348 64.6544 42.5656 64.2643 40.8163Z" fill="#F9FBFA"/>
<path d="M65.0879 40.8163C64.2329 44.9402 62.9543 48.8232 62.6162 53.0612C65.3512 49.6702 66.1596 45.0551 66.7357 40.8163H65.0879Z" fill="#ADBFAC"/>
<path d="M62.8908 42.1769C62.8451 42.2222 62.7993 43.0839 63.1655 42.7211C63.2113 42.6758 63.2571 41.814 62.8908 42.1769Z" fill="#ACC0AA"/>
<path d="M61.7926 42.449L60.9688 58.7755C63.3335 55.0797 64.2658 46.1778 61.7926 42.449Z" fill="#D8E2D7"/>
<path d="M64.5388 42.9932C64.4931 43.0385 64.4473 43.9003 64.8135 43.5374C64.8592 43.4921 64.905 42.6304 64.5388 42.9932Z" fill="#D0DCD1"/>
<path d="M52.7295 43.2653C48.3211 55.1721 47.7861 66.5883 47.7861 79.1837C48.8941 76.5675 48.4793 73.8246 48.7499 71.0204C49.2172 66.1788 49.8563 61.0564 50.9984 56.3265C51.9766 52.2761 54.2021 47.3333 52.7295 43.2653Z" fill="#ABBEAA"/>
<path d="M110.402 44.0816V48.1633C111.086 46.5057 111.086 45.7392 110.402 44.0816Z" fill="#C4D2C3"/>
<path d="M19.7734 44.8979V48.1633C20.3586 46.7269 20.3586 46.3343 19.7734 44.8979Z" fill="#C8D6CA"/>
<path d="M62.6162 44.8979V48.1633C63.2013 46.7269 63.2013 46.3343 62.6162 44.8979Z" fill="#F9FAF9"/>
<path d="M51.0815 45.7143V48.1633C51.6551 46.8949 51.6551 46.9826 51.0815 45.7143Z" fill="#CCD9CC"/>
<path d="M111.227 45.7143V49.7959C111.91 48.1384 111.91 47.3718 111.227 45.7143Z" fill="#D9E3D8"/>
<path d="M13.1826 46.5306V51.4286C13.9662 49.563 13.9662 48.3962 13.1826 46.5306Z" fill="#E9EDE8"/>
<path d="M53.5532 46.5306V50.6122C54.237 48.9547 54.237 48.1882 53.5532 46.5306Z" fill="#FEFEFE"/>
<path d="M60.9688 47.3469C59.7386 52.6637 58.5008 57.3521 58.4971 62.8571C61.0224 59.0659 62.665 51.6528 60.9688 47.3469Z" fill="#C4D1C4"/>
<path d="M113.698 47.3469V49.7959C114.272 48.5276 114.272 48.6153 113.698 47.3469Z" fill="#DEDFDB"/>
<path d="M15.6543 48.1633V66.1225C17.4823 61.8063 17.4823 52.4794 15.6543 48.1633Z" fill="#F3F6F3"/>
<path d="M18.9497 48.1633V51.4286C19.5348 49.9922 19.5348 49.5996 18.9497 48.1633Z" fill="#DFE6DE"/>
<path d="M48.8845 48.7075C48.8388 48.7528 48.793 49.6145 49.1592 49.2517C49.2049 49.2064 49.2507 48.3446 48.8845 48.7075Z" fill="#D3DCD3"/>
<path d="M49.4339 48.1633C48.4377 51.9785 47.8191 55.6465 47.7861 59.5918C49.323 56.4244 50.6483 51.5193 49.4339 48.1633Z" fill="#F9FAF9"/>
<path d="M74.1512 56.3265C78.3624 57.4674 82.8969 53.334 86.5096 51.4286L79.9185 56.3265C82.1344 56.6575 83.6721 55.694 85.6858 54.6939C78.7081 60.5902 70.6331 65.7987 62.6166 70.2041C63.6271 68.3366 64.3524 66.4828 65.0883 64.4898C62.5397 65.8277 61.2055 68.5136 58.4971 69.3877C61.2231 73.8749 65.7205 70.5375 69.2078 68.385C76.5322 63.8637 89.1758 58.3137 90.6291 48.9796C84.5883 49.5926 79.2858 53.3263 74.1512 56.3265Z" fill="#E9EFE9"/>
<path d="M69.2075 52.2449C71.7371 52.1621 72.4927 51.6936 74.1509 49.7959C71.8087 50.1398 70.8454 50.5624 69.2075 52.2449Z" fill="#D4DFD4"/>
<path d="M111.227 49.7959V62.8572C112.719 59.3315 112.719 53.3216 111.227 49.7959Z" fill="#BCCCBB"/>
<path d="M13.1826 51.4286V62.8571C14.5559 59.6146 14.5559 54.6711 13.1826 51.4286Z" fill="#CCD8CC"/>
<path d="M18.9497 51.4286V64.4898C20.4429 60.9641 20.4429 54.9542 18.9497 51.4286Z" fill="#BFCDBE"/>
<path d="M51.9059 51.4286C49.6543 62.243 47.2928 73.8451 48.6103 84.8979C52.132 80.8343 50.0614 75.2118 50.2906 70.2041C50.4676 66.3325 51.7351 62.6573 51.9059 58.7755C52.3688 60.2454 52.5849 61.3239 52.7298 62.8571C54.2266 59.3229 53.7059 54.7833 51.9059 51.4286Z" fill="#D5E0D7"/>
<path d="M57.6729 51.4286V53.8775C58.2464 52.6092 58.2464 52.6969 57.6729 51.4286Z" fill="#CBD8CC"/>
<path d="M80.7422 54.6939C83.5154 54.4508 84.7183 53.5425 86.5095 51.4286C84.2751 52.2399 82.5449 53.1554 80.7422 54.6939Z" fill="#C2D0C2"/>
<path d="M112.05 52.2449V64.4898C113.484 61.1039 113.484 55.6308 112.05 52.2449Z" fill="#E1E9E2"/>
<path d="M53.5532 53.0612V67.7551C55.1611 63.9584 55.1611 56.858 53.5532 53.0612Z" fill="#F9FAF9"/>
<path d="M61.7925 53.0612V55.5102C62.6291 54.5801 62.8707 54.1946 63.4403 53.0612H61.7925Z" fill="#C4D2C5"/>
<path d="M14.8301 53.8776V64.4898C16.1408 61.3949 16.1408 56.9725 14.8301 53.8776Z" fill="#CAD6C9"/>
<path d="M54.3774 53.8776V62.8572C55.5564 60.0735 55.5564 56.6612 54.3774 53.8776Z" fill="#D1DDD1"/>
<path d="M70.8555 61.2245C75.0126 60.2571 78.8063 57.9079 81.5662 54.6939C77.4367 55.864 73.1197 57.4492 70.8555 61.2245Z" fill="#B1C3AF"/>
<path d="M83.2139 57.1429C84.4143 56.2421 84.7768 55.8829 85.6856 54.6939C83.9356 55.428 83.9546 55.4093 83.2139 57.1429Z" fill="#CDD8CD"/>
<path d="M46.9625 55.5102C46.9625 67.4117 46.2727 78.745 47.7864 90.6122C49.7877 87.5404 48.4402 83.5037 48.0216 80C47.1072 72.3472 50.3451 62.4865 46.9625 55.5102Z" fill="#E7EDE6"/>
<path d="M63.4404 55.5102V57.9592C64.277 57.0291 64.5187 56.6436 65.0882 55.5102H63.4404Z" fill="#D7E0D9"/>
<path d="M56.8491 56.3265V71.0204C58.457 67.2237 58.457 60.1233 56.8491 56.3265Z" fill="#BECEBE"/>
<path d="M66.7358 66.1225C71.8424 67.4504 80.1634 60.0389 83.2138 56.3265C77.3482 58.2541 72.0275 62.913 66.7358 66.1225Z" fill="#B2C5B3"/>
<path d="M65.0879 64.4898C68.7397 62.8661 71.7038 60.2692 74.1508 57.1429C70.2755 58.4478 67.1277 60.9634 65.0879 64.4898Z" fill="#E6EBE5"/>
<path d="M66.7358 66.1224C71.6207 64.0369 76.5357 61.2568 79.9182 57.1429C75.1754 58.6398 69.3359 61.8031 66.7358 66.1224Z" fill="#DAE4DC"/>
<path d="M51.9056 58.7755C51.3353 65.6934 50.2578 72.1625 50.2578 79.1837C52.4571 74.1322 54.092 63.938 51.9056 58.7755Z" fill="#AEC1AE"/>
<path d="M66.7358 64.4898C68.7835 63.6631 69.6999 63.0811 70.8553 61.2245C68.9132 62.1254 68.0737 62.8215 66.7358 64.4898Z" fill="#ADBFAD"/>
<path d="M13.1826 62.8571V66.1225C13.7678 64.6861 13.7678 64.2935 13.1826 62.8571Z" fill="#E4EAE4"/>
<path d="M45.3145 62.8571V75.9184C46.8076 72.3927 46.8076 66.3828 45.3145 62.8571Z" fill="#BDCBBB"/>
<path d="M46.1382 62.8571V69.3878C47.0951 67.1267 47.0951 65.1183 46.1382 62.8571Z" fill="#D7E0D8"/>
<path d="M52.7297 62.8571C52.3616 71.352 49.6794 79.7597 49.4341 88.1633C50.0758 86.7192 50.1858 85.6849 50.258 84.0816C51.8936 85.1241 52.6057 85.6988 53.5536 87.3469C59.8322 79.6376 66.911 74.06 75.7989 69.3878C72.9664 68.4771 70.8203 69.9842 68.3838 71.5054C63.2789 74.6928 58.9288 78.5947 54.3775 82.449C55.2044 80.0749 55.5505 78.4082 55.2014 75.9184C54.3257 77.5257 53.9391 79.0191 53.5536 80.8163C52.0288 74.8367 55.4229 68.8034 52.7297 62.8571Z" fill="#E9EEE8"/>
<path d="M111.227 62.8571V68.5714C112.099 66.5026 112.099 64.926 111.227 62.8571Z" fill="#D1DBCF"/>
<path d="M18.9497 64.4898V68.5714C19.6335 66.9139 19.6335 66.1474 18.9497 64.4898Z" fill="#EAEEEA"/>
<path d="M65.6371 64.7619C65.2709 65.1248 66.1406 65.0794 66.1863 65.0341C66.5526 64.6712 65.6829 64.7166 65.6371 64.7619Z" fill="#B1C2B1"/>
<path d="M63.4401 66.1224C63.4005 67.7128 63.1893 68.7155 62.6162 70.2041C64.4471 69.5427 65.9037 68.7848 67.5596 67.7551L66.7357 65.3061L63.4401 66.1224Z" fill="#D0DCD0"/>
<path d="M74.1509 67.7551C76.8084 69.1719 78.8785 68.0009 81.566 66.9388C80.4186 68.1091 79.7264 68.6081 78.2704 69.3878C78.7628 70.3636 78.6544 70.1856 79.9182 71.0204C78.9334 72.0186 78.8336 72.1796 78.2704 73.4694C81.2289 71.1867 82.7961 69.0349 83.2138 65.3061C80.0727 65.7722 77.2031 66.93 74.1509 67.7551Z" fill="#E1E7E1"/>
<path d="M15.6543 66.1224V70.2041C16.3381 68.5465 16.3381 67.78 15.6543 66.1224Z" fill="#CDD9CC"/>
<path d="M60.1447 66.1224C59.6818 67.5923 59.4657 68.6708 59.3208 70.2041C60.8103 68.601 61.1368 68.0832 60.1447 66.1224Z" fill="#D7DFD7"/>
<path d="M78.2705 68.5714C80.1957 68.544 80.4669 68.4917 81.5661 66.9388C80.1226 67.3991 79.4718 67.6889 78.2705 68.5714Z" fill="#CBD5CA"/>
<path d="M14.0063 68.5714V71.8367C14.5915 70.4004 14.5915 70.0077 14.0063 68.5714Z" fill="#E5ECE6"/>
<path d="M19.7734 68.5714V71.8367C20.3586 70.4004 20.3586 70.0077 19.7734 68.5714Z" fill="#E3EAE3"/>
<path d="M54.3774 86.5306C62.6806 80.7591 70.3044 74.5239 79.0944 69.3878C75.8795 68.5048 72.7612 70.4576 70.0315 72.141C64.0846 75.8085 57.3286 80.0154 54.3774 86.5306Z" fill="#B1C3B1"/>
<path d="M110.402 68.5714V71.8367C110.987 70.4004 110.987 70.0077 110.402 68.5714Z" fill="#D9E3D9"/>
<path d="M63.4404 80C68.5848 78.31 74.7612 74.291 78.2706 70.2041C72.6136 71.8528 67.1428 75.4655 63.4404 80Z" fill="#ECF1ED"/>
<path d="M76.6226 73.4694C78.0664 72.3834 78.8221 71.6347 79.9182 70.2041C78.0653 71.1457 77.5729 71.6336 76.6226 73.4694Z" fill="#D3DBD2"/>
<path d="M16.7527 72.381C16.7069 72.4263 16.6611 73.288 17.0273 72.9252C17.0731 72.8798 17.1189 72.0181 16.7527 72.381Z" fill="#D3DED3"/>
<path d="M56.2995 72.381C56.2538 72.4263 56.208 73.288 56.5742 72.9252C56.62 72.8798 56.6658 72.0181 56.2995 72.381Z" fill="#DEE6DE"/>
<path d="M14.8301 72.6531V75.9184C15.4152 74.4821 15.4152 74.0894 14.8301 72.6531Z" fill="#E9EEE9"/>
<path d="M70.8555 75.1021L71.6794 77.551C73.6763 76.0831 75.3512 74.7701 76.6228 72.6531C74.5723 73.2874 72.7736 74.1365 70.8555 75.1021Z" fill="#B9CABA"/>
<path d="M77.4468 72.6531C71.2131 77.5 60.2629 81.6225 56.0254 88.1633C61.9271 86.0343 67.2727 82.2278 72.5027 78.8253C74.8989 77.2666 77.5109 75.6215 77.4468 72.6531Z" fill="#F3F6F4"/>
<path d="M109.853 73.1973C109.808 73.2426 109.762 74.1043 110.128 73.7414C110.174 73.6961 110.22 72.8344 109.853 73.1973Z" fill="#DBE3DA"/>
<path d="M20.5977 73.4694C21.1609 74.7592 21.2607 74.9202 22.2455 75.9184C21.6822 74.6286 21.5824 74.4676 20.5977 73.4694Z" fill="#C7D4C6"/>
<path d="M21.696 76.4626C21.6503 76.5079 21.6045 77.3696 21.9707 77.0068C22.0164 76.9615 22.0622 76.0997 21.696 76.4626Z" fill="#E1E9E2"/>
<path d="M52.7295 75.9184V80.8163C53.8336 78.898 53.786 77.8684 52.7295 75.9184Z" fill="#C3D1C4"/>
<path d="M65.0879 80.8163C68.1244 79.8529 70.1316 78.7126 71.6791 75.9184C68.7136 76.8957 66.6882 78.1285 65.0879 80.8163Z" fill="#ACC1AC"/>
<path d="M112.325 76.4626C112.279 76.5079 112.233 77.3696 112.6 77.0068C112.645 76.9614 112.691 76.0997 112.325 76.4626Z" fill="#C7C6C4"/>
<path d="M22.5197 78.0953C22.474 78.1406 22.4282 79.0023 22.7944 78.6394C22.8402 78.5941 22.886 77.7324 22.5197 78.0953Z" fill="#D9E3DA"/>
<path d="M23.344 79.7279C23.2982 79.7732 23.2524 80.6349 23.6187 80.2721C23.6644 80.2268 23.7102 79.3651 23.344 79.7279Z" fill="#D8E0D7"/>
<path d="M55.2012 87.3469L59.3207 85.7143C60.1104 83.1951 62.0292 82.1812 64.2641 80.8163C60.034 79.7202 56.8217 83.9135 55.2012 87.3469Z" fill="#DDE6DE"/>
<path d="M64.2644 80L58.4971 84.0816C61.0789 84.5045 64.573 82.9322 64.2644 80Z" fill="#C4D1C4"/>
<path d="M24.1677 81.3606C24.122 81.4059 24.0762 82.2677 24.4424 81.9045C24.4881 81.8596 24.5339 80.9977 24.1677 81.3606Z" fill="#E4E9E2"/>
<path d="M18.126 81.6327C21.3145 88.311 26.4398 96.3029 33.7801 98.7755C31.6605 96.0294 28.8189 94.071 26.5906 91.4163C23.6668 87.9339 22.3288 83.8629 18.126 81.6327Z" fill="#C2CFC0"/>
<path d="M104.635 83.2653V84.898C105.982 84.4531 105.834 84.6 106.283 83.2653H104.635Z" fill="#E2E7E1"/>
<path d="M48.6099 84.8979V88.1633C49.195 86.7273 49.195 86.3339 48.6099 84.8979Z" fill="#C0CEC0"/>
<path d="M47.7861 90.6122V95.5102C48.5697 93.6449 48.5697 92.4775 47.7861 90.6122Z" fill="#D0DBD0"/>
<path d="M46.9623 95.5102C46.7129 97.3828 46.4856 98.1322 45.3145 99.5918C48.1632 100.655 47.8407 97.3241 46.9623 95.5102Z" fill="#C3D2C3"/>
<path d="M48.6099 97.9592C48.8626 99.6922 48.9247 100.152 50.2577 101.224C49.7665 99.951 49.3608 99.0832 48.6099 97.9592Z" fill="#D3DFD6"/>
<path d="M32.9561 98.7755C36.7696 102.562 43.3954 104.896 48.6101 106.122C45.5457 101.981 37.8085 100.147 32.9561 98.7755Z" fill="#B5C8B7"/>
<path d="M52.455 101.496C52.0888 101.86 52.9585 101.814 53.0042 101.769C53.3704 101.406 52.5007 101.451 52.455 101.496Z" fill="#CDD9CC"/>
<path d="M38.4487 102.313C38.0824 102.676 38.9521 102.63 38.9979 102.585C39.3641 102.222 38.4944 102.268 38.4487 102.313Z" fill="#D4DDD2"/>
<path d="M54.3774 102.041C55.6183 102.598 56.2846 102.715 57.673 102.857C56.4322 102.3 55.7659 102.183 54.3774 102.041Z" fill="#C7D3C7"/>
<path d="M40.0966 103.129C39.7304 103.492 40.6001 103.447 40.6458 103.402C41.012 103.038 40.1423 103.084 40.0966 103.129Z" fill="#E2E7E1"/>
<path d="M60.1445 102.857C64.0365 104.475 69.1331 103.673 73.3269 103.673C69.435 102.056 64.3383 102.857 60.1445 102.857Z" fill="#C4D2C4"/>
<path d="M41.7441 103.945C41.3778 104.309 42.2475 104.263 42.2933 104.218C42.6595 103.855 41.7898 103.9 41.7441 103.945Z" fill="#DBE2DA"/>
<path d="M46.6874 103.945C46.3212 104.309 47.1909 104.263 47.2366 104.218C47.6029 103.855 46.7331 103.9 46.6874 103.945Z" fill="#E0E8E0"/>
<path d="M61.7925 103.673C65.0541 105.029 68.9906 104.49 72.5032 104.49C69.2416 103.134 65.3051 103.673 61.7925 103.673Z" fill="#E8EEE8"/>
<path d="M43.392 104.762C43.0258 105.125 43.8955 105.079 43.9412 105.034C44.3074 104.671 43.4377 104.717 43.392 104.762Z" fill="#DDE5DC"/>
<path d="M45.8637 105.578C45.4975 105.941 46.3672 105.896 46.4129 105.851C46.7791 105.487 45.9094 105.533 45.8637 105.578Z" fill="#DBE4DB"/>
</svg>
